<svg width="26" height="26" viewBox="0 0 26 26" fill="none" xmlns="http://www.w3.org/2000/svg">
<g clip-path="url(#clip0_166_7801)">
<path d="M7.23494 25.5141C6.72232 25.1731 6.268 24.7517 5.88944 24.2661C5.47302 23.7649 5.08719 23.2391 4.73406 22.6915C3.90538 21.4775 3.2555 20.1506 2.80437 18.7517C2.26244 17.1267 2 15.5691 2 14.0457C2 12.3443 2.36806 10.8591 3.08794 9.61106C3.62157 8.63561 4.40615 7.82045 5.3605 7.24994C6.28537 6.67548 7.34807 6.3611 8.43662 6.33994C8.81769 6.33994 9.228 6.39519 9.6635 6.50081C9.97631 6.58938 10.3574 6.72913 10.8229 6.903C11.4152 7.13131 11.7411 7.27106 11.8516 7.30519C12.1985 7.43194 12.4902 7.48719 12.7193 7.48719C12.8932 7.48719 13.1386 7.43194 13.4172 7.34744C13.5741 7.29219 13.8698 7.19469 14.2931 7.0135C14.7124 6.86075 15.0422 6.72994 15.3047 6.63244C15.7069 6.51381 16.0961 6.40413 16.443 6.34888C16.8543 6.28403 17.2717 6.26686 17.6869 6.29769C18.4065 6.34472 19.1153 6.4972 19.7905 6.75025C20.8947 7.19469 21.7876 7.88856 22.4522 8.87494C22.1713 9.04808 21.9077 9.24779 21.6649 9.47131C21.1365 9.93978 20.6864 10.4897 20.3316 11.1004C19.8679 11.9349 19.6275 12.8749 19.6337 13.8296C19.6507 15.002 19.9514 16.0347 20.5437 16.9276C20.9791 17.5894 21.5451 18.1554 22.2069 18.5908C22.5457 18.8191 22.8374 18.9759 23.1169 19.0816C22.9861 19.4878 22.8463 19.8811 22.6814 20.2711C22.3073 21.1456 21.8539 21.9841 21.3269 22.776C20.8573 23.4577 20.4892 23.9655 20.2097 24.3035C19.7742 24.8194 19.355 25.2135 18.9317 25.4881C18.4661 25.7969 17.9161 25.9618 17.3571 25.9618C16.9785 25.9763 16.6 25.9305 16.2358 25.8261C15.923 25.7205 15.6134 25.6059 15.3087 25.4751C14.992 25.3296 14.6654 25.2066 14.3313 25.1071C13.5056 24.895 12.6398 24.8936 11.8134 25.103C11.4746 25.2005 11.1487 25.3142 10.827 25.454C10.3744 25.6441 10.0738 25.7717 9.89994 25.8261C9.553 25.9277 9.19306 25.9911 8.82906 26.0122C8.266 26.0122 7.74112 25.8513 7.22112 25.5255L7.23494 25.5141ZM14.6612 5.51444C13.9251 5.8825 13.2222 6.03931 12.5243 5.98812C12.4146 5.28531 12.5243 4.56625 12.816 3.77894C13.0643 3.11193 13.4313 2.49534 13.8991 1.95894C14.3931 1.39427 14.9925 0.931431 15.6638 0.596375C16.3788 0.228312 17.0605 0.02925 17.7121 0C17.7966 0.736125 17.7121 1.46006 17.4416 2.2425C17.1912 2.93417 16.8249 3.57819 16.3585 4.147C15.8824 4.71244 15.2982 5.17708 14.6401 5.51362L14.6612 5.51444Z" fill="#1E1E1E"/>
</g>
<defs>
<clipPath id="clip0_166_7801">
<rect width="26" height="26" fill="white"/>
</clipPath>
</defs>
</svg>
