<svg width="22" height="22" viewBox="0 0 22 22" fill="none" xmlns="http://www.w3.org/2000/svg">
<path d="M11 0.74707C11.4524 0.74707 11.8833 0.84399 12.3691 1.02734L12.5811 1.11133C13.1445 1.34475 13.8061 1.69192 14.6641 2.14258L16.7324 3.22754C17.6539 3.71076 18.3884 4.0972 18.9717 4.46289L19.2129 4.61816C19.8455 5.04023 20.2959 5.46099 20.6201 6.01172V6.01074C20.9032 6.4926 21.0586 7.01905 21.1445 7.66504L21.1768 7.9502C21.2518 8.7154 21.2529 9.66462 21.2529 10.9023V11.0977C21.2529 12.3354 21.2518 13.2846 21.1768 14.0498C21.0997 14.8287 20.9441 15.4381 20.6201 15.9883C20.2959 16.539 19.8455 16.9598 19.2129 17.3818C18.5934 17.7951 17.7846 18.2202 16.7314 18.7734L14.6641 19.8574C13.8061 20.3081 13.1445 20.6552 12.5811 20.8887C12.0073 21.1261 11.5173 21.2529 11 21.2529C10.5476 21.2529 10.1167 21.156 9.63086 20.9727L9.41895 20.8887C8.85554 20.6552 8.1939 20.3081 7.33594 19.8574L5.26758 18.7725C4.34611 18.2892 3.61165 17.9028 3.02832 17.5371L2.78711 17.3818L2.55859 17.2227C2.04402 16.852 1.6636 16.4702 1.37988 15.9883H1.37891C1.09624 15.5067 0.941347 14.9805 0.855469 14.335L0.823242 14.0498C0.748214 13.2846 0.74707 12.3354 0.74707 11.0967V10.9033C0.74707 9.66459 0.748214 8.7154 0.823242 7.9502C0.900278 7.17127 1.05587 6.56188 1.37988 6.01172C1.70387 5.46138 2.15431 5.04041 2.78516 4.61816L2.78613 4.61914C3.40662 4.20582 4.21491 3.77956 5.26758 3.22754L7.33594 2.14258C8.1939 1.69192 8.85554 1.34475 9.41895 1.11133C9.99266 0.87393 10.4827 0.74707 11 0.74707ZM19.8398 6.86328L16.5273 8.51855L16.2529 8.65527V12C16.2529 12.067 16.2261 12.1313 16.1787 12.1787C16.1313 12.2261 16.067 12.2529 16 12.2529C15.933 12.2529 15.8687 12.2261 15.8213 12.1787C15.7739 12.1313 15.7471 12.067 15.7471 12V8.90918L15.0273 9.26953L11.5273 11.0195L11.2529 11.1562V20.7988L11.8965 20.5996C12.05 20.5522 12.2142 20.4927 12.3877 20.4209C12.9316 20.1962 13.5781 19.8573 14.46 19.3945L16.459 18.3438L16.46 18.3447C17.5403 17.7778 18.3328 17.3617 18.9326 16.9619L18.9336 16.9609C19.5267 16.5641 19.9112 16.1955 20.1846 15.7334L20.1855 15.7314C20.424 15.3252 20.5627 14.8702 20.6426 14.2686L20.6738 14.001C20.7468 13.2581 20.7471 12.3258 20.7471 11.0586V10.9424C20.7471 9.99161 20.7479 9.22906 20.7168 8.59375L20.6738 7.99902C20.6483 7.73034 20.6056 7.46362 20.5469 7.2002L20.4092 6.5791L19.8398 6.86328ZM5.71289 3.56445L5.54004 3.65527C4.45896 4.2216 3.66637 4.63806 3.06738 5.03809C2.79971 5.21249 2.54857 5.41133 2.31738 5.63184L1.80566 6.12012L2.43848 6.43652L10.7773 10.6064L11 10.7178L11.2227 10.6064L14.5791 8.92676L15.4463 8.49316L14.5889 8.04199L6.38281 3.72363C6.35577 3.70827 6.33071 3.68886 6.30957 3.66602L6.05078 3.38574L5.71289 3.56445ZM11 1.25293C10.5733 1.25293 10.1512 1.3557 9.6123 1.5791C9.06849 1.80376 8.42124 2.14257 7.53906 2.60547L7.27832 2.74316L6.44043 3.18262L7.27734 3.62305L15.7773 8.09668L16.0029 8.21582L16.2314 8.10156L19.5625 6.43652L20.1865 6.125L19.6875 5.63672C19.4799 5.43374 19.2331 5.23982 18.9336 5.03906L18.9326 5.03809C18.3328 4.63826 17.5401 4.2216 16.459 3.65527L14.46 2.60547C13.5781 2.14272 12.9316 1.8038 12.3877 1.5791H12.3867C11.8483 1.35598 11.4275 1.25293 11 1.25293ZM10.7471 11.1553L10.4727 11.0186L2.16016 6.8623L1.59668 6.58105L1.4541 7.19434C1.42618 7.31387 1.40107 7.4397 1.37988 7.57324L1.32617 7.99805C1.25325 8.74188 1.25293 9.67412 1.25293 10.9414V11.0576C1.25293 12.325 1.25217 13.2576 1.32617 14.001C1.3992 14.7386 1.5431 15.2674 1.81543 15.7314V15.7324C2.08811 16.1955 2.4731 16.565 3.06738 16.9619C3.6663 17.3619 4.45917 17.7775 5.54004 18.3438L7.54004 19.3945C8.42189 19.8573 9.06844 20.1952 9.6123 20.4199C9.78543 20.4916 9.94885 20.5527 10.1016 20.6006L10.7471 20.8027V11.1553Z" fill="black" stroke="white" stroke-width="0.994419"/>
</svg>
