<svg width="23" height="24" viewBox="0 0 23 24" fill="none" xmlns="http://www.w3.org/2000/svg">
<path d="M21.8949 22.3951L19.0113 19.5114M6.33006 9.93276C5.95163 9.96196 5.56887 9.97709 5.18179 9.97817C4.41304 9.97817 3.65888 9.90844 2.92418 9.82572C2.44157 9.76982 1.9921 9.55214 1.649 9.20816C1.3059 8.86418 1.08939 8.41416 1.03473 7.9314C0.956877 7.20157 0.892003 6.45228 0.892003 5.68676C0.892003 4.92449 0.958498 4.17358 1.03797 3.44375C1.14177 2.45442 1.9381 1.65971 2.9258 1.54943C3.6605 1.46833 4.41466 1.39697 5.18341 1.39697C5.95217 1.39697 6.70633 1.46671 7.43941 1.54943C8.42873 1.65971 9.22344 2.45442 9.32886 3.44375C9.40833 4.17358 9.47483 4.92287 9.47483 5.68676C9.47375 6.05006 9.46023 6.41011 9.43428 6.76691M5.18179 13.7263C4.41304 13.7263 3.65888 13.7976 2.92418 13.8787C1.93485 13.989 1.14015 14.7853 1.03473 15.773C0.956877 16.5029 0.890381 17.2538 0.890381 18.0177C0.890381 18.7816 0.956877 19.5309 1.03635 20.2623C1.14015 21.2516 1.93647 22.0464 2.92418 22.1566C3.65888 22.2377 4.41304 22.3091 5.18179 22.3091C5.95055 22.3091 6.70471 22.2377 7.43778 22.1566M12.8629 5.68676C12.8629 4.92287 12.9277 4.17358 13.0072 3.44375C13.1126 2.45442 13.909 1.65971 14.8967 1.54943C15.6314 1.46833 16.3855 1.39697 17.1543 1.39697C17.923 1.39697 18.6756 1.46671 19.4103 1.54943C20.3996 1.65971 21.1943 2.45442 21.2997 3.44375C21.3776 4.17358 21.4457 4.92287 21.4457 5.68676C21.4457 6.45228 21.3776 7.20157 21.2997 7.9314C21.2754 8.1558 21.2151 8.37484 21.1213 8.58014M14.3112 21.0862C18.3317 21.0862 20.5926 18.8254 20.5926 14.8048C20.5926 10.7842 18.3317 8.52338 14.3112 8.52338C10.2906 8.52338 8.02976 10.7826 8.02976 14.8048C8.02976 18.827 10.2906 21.0862 14.3112 21.0862Z" stroke="black" stroke-width="1.71429" stroke-linecap="round" stroke-linejoin="round"/>
</svg>
