<svg width="22" height="22" viewBox="0 0 22 22" fill="none" xmlns="http://www.w3.org/2000/svg">
<path fill-rule="evenodd" clip-rule="evenodd" d="M6 0.75C6.19891 0.75 6.38968 0.829018 6.53033 0.96967C6.67098 1.11032 6.75 1.30109 6.75 1.5V2.263C7.412 2.25 8.141 2.25 8.944 2.25H13.056C13.859 2.25 14.588 2.25 15.25 2.263V1.5C15.25 1.30109 15.329 1.11032 15.4697 0.96967C15.6103 0.829018 15.8011 0.75 16 0.75C16.1989 0.75 16.3897 0.829018 16.5303 0.96967C16.671 1.11032 16.75 1.30109 16.75 1.5V2.327C17.01 2.347 17.2563 2.37233 17.489 2.403C18.661 2.561 19.61 2.893 20.359 3.641C21.107 4.39 21.439 5.339 21.597 6.511C21.6463 6.88567 21.682 7.29567 21.704 7.741C21.7584 7.88855 21.765 8.04947 21.723 8.201C21.75 9.002 21.75 9.913 21.75 10.944V13.056C21.75 14.894 21.75 16.35 21.597 17.489C21.439 18.661 21.107 19.61 20.359 20.359C19.61 21.107 18.661 21.439 17.489 21.597C16.349 21.75 14.894 21.75 13.056 21.75H8.944C7.106 21.75 5.65 21.75 4.511 21.597C3.339 21.439 2.39 21.107 1.641 20.359C0.893 19.61 0.561 18.661 0.403 17.489C0.25 16.349 0.25 14.894 0.25 13.056V10.944C0.25 9.913 0.25 9.002 0.277 8.2C0.235271 8.04836 0.242267 7.88744 0.297 7.74C0.318333 7.29533 0.353667 6.88567 0.403 6.511C0.561 5.339 0.893 4.39 1.641 3.641C2.39 2.893 3.339 2.561 4.511 2.403C4.74433 2.37233 4.99067 2.347 5.25 2.327V1.5C5.25 1.30109 5.32902 1.11032 5.46967 0.96967C5.61032 0.829018 5.80109 0.75 6 0.75ZM1.763 8.75C1.75 9.403 1.75 10.146 1.75 11V13C1.75 14.907 1.752 16.262 1.89 17.29C2.025 18.295 2.279 18.875 2.702 19.298C3.125 19.721 3.705 19.975 4.711 20.11C5.739 20.248 7.093 20.25 9 20.25H13C14.907 20.25 16.262 20.248 17.29 20.11C18.295 19.975 18.875 19.721 19.298 19.298C19.721 18.875 19.975 18.295 20.11 17.289C20.248 16.262 20.25 14.907 20.25 13V11C20.25 10.146 20.25 9.403 20.237 8.75H1.763ZM20.168 7.25H1.832C1.848 7.06067 1.86733 6.88067 1.89 6.71C2.025 5.705 2.279 5.125 2.702 4.702C3.125 4.279 3.705 4.025 4.711 3.89C5.739 3.752 7.093 3.75 9 3.75H13C14.907 3.75 16.262 3.752 17.29 3.89C18.295 4.025 18.875 4.279 19.298 4.702C19.721 5.125 19.975 5.705 20.11 6.711C20.1327 6.881 20.152 7.06067 20.168 7.25Z" fill="#2F2F2F"/>
</svg>
