<svg width="13" height="13" viewBox="0 0 13 13" fill="none" xmlns="http://www.w3.org/2000/svg">
<path d="M2.66663 3.66675H1.99996C1.64634 3.66675 1.3072 3.80722 1.05715 4.05727C0.807102 4.30732 0.666626 4.64646 0.666626 5.00008L0.666626 11.0001C0.666626 11.3537 0.807102 11.6928 1.05715 11.9429C1.3072 12.1929 1.64634 12.3334 1.99996 12.3334H7.99996C8.35358 12.3334 8.69272 12.1929 8.94277 11.9429C9.19282 11.6928 9.33329 11.3537 9.33329 11.0001V10.3334" stroke="white" stroke-width="1.32589" stroke-linecap="round" stroke-linejoin="round"/>
<path d="M8.66667 2.3334L10.6667 4.3334M11.59 3.39007C11.8526 3.12751 12.0001 2.77139 12.0001 2.40007C12.0001 2.02875 11.8526 1.67264 11.59 1.41007C11.3274 1.14751 10.9713 1 10.6 1C10.2287 1 9.87257 1.14751 9.61 1.41007L4 7.00007L4 9.00007H6L11.59 3.39007Z" stroke="white" stroke-width="1.32589" stroke-linecap="round" stroke-linejoin="round"/>
</svg>
