<svg width="54" height="53" viewBox="0 0 54 53" fill="none" xmlns="http://www.w3.org/2000/svg">
<g clip-path="url(#clip0_840_6417)">
<path d="M54 26.5C54 12.1407 41.9116 0.5 27 0.5C12.0884 0.5 0 12.1405 0 26.5C0 39.4773 9.87356 50.2337 22.7812 52.1841V34.0156H15.9258V26.5H22.7812V20.7719C22.7812 14.2556 26.8123 10.6563 32.9794 10.6563C35.9336 10.6563 39.0234 11.1641 39.0234 11.1641V17.5625H35.6189C32.2646 17.5625 31.2188 19.5667 31.2188 21.623V26.5H38.707L37.51 34.0156H31.2188V52.1841C44.1264 50.2337 54 39.4775 54 26.5Z" fill="#1877F2"/>
<path d="M37.51 34.0156L38.707 26.5H31.2188V21.623C31.2188 19.5665 32.2648 17.5625 35.6189 17.5625H39.0234V11.1641C39.0234 11.1641 35.9336 10.6562 32.9794 10.6562C26.8123 10.6562 22.7812 14.2556 22.7812 20.7719V26.5H15.9258V34.0156H22.7812V52.1841C24.1769 52.3948 25.5874 52.5004 27 52.5C28.4126 52.5004 29.8232 52.3948 31.2188 52.1841V34.0156H37.51Z" fill="white"/>
</g>
<defs>
<clipPath id="clip0_840_6417">
<rect width="54" height="52" fill="white" transform="translate(0 0.5)"/>
</clipPath>
</defs>
</svg>
