<svg width="26" height="26" viewBox="0 0 26 26" fill="none" xmlns="http://www.w3.org/2000/svg">
<path d="M6.23832 15.2838L5.41557 18.3552L2.40844 18.4188C1.50975 16.7519 1 14.8448 1 12.8182C1 10.8584 1.47661 9.01038 2.32142 7.38312H2.32207L4.99925 7.87394L6.17202 10.5351C5.92657 11.2507 5.79278 12.0188 5.79278 12.8182C5.79287 13.6857 5.95002 14.5169 6.23832 15.2838Z" fill="#FBBB00"/>
<path d="M24.4299 10.6104C24.5656 11.3253 24.6364 12.0636 24.6364 12.8181C24.6364 13.6642 24.5474 14.4896 24.3779 15.2857C23.8026 17.9948 22.2994 20.3604 20.2169 22.0344L20.2163 22.0337L16.8442 21.8617L16.367 18.8824C17.7488 18.0721 18.8287 16.8039 19.3975 15.2857H13.078V10.6104H19.4897H24.4299Z" fill="#518EF8"/>
<path d="M20.2162 22.0338L20.2169 22.0344C18.1916 23.6623 15.6188 24.6364 12.8182 24.6364C8.31754 24.6364 4.40457 22.1208 2.40845 18.4189L6.23832 15.2838C7.23636 17.9474 9.80584 19.8436 12.8182 19.8436C14.113 19.8436 15.326 19.4935 16.3669 18.8825L20.2162 22.0338Z" fill="#28B446"/>
<path d="M20.3617 3.72077L16.5332 6.85517C15.4559 6.18181 14.1825 5.79283 12.8182 5.79283C9.73771 5.79283 7.12016 7.77593 6.17212 10.5351L2.32212 7.38311H2.32147C4.28837 3.59091 8.25069 1 12.8182 1C15.6858 1 18.315 2.02144 20.3617 3.72077Z" fill="#F14336"/>
</svg>
