<svg width="23" height="22" viewBox="0 0 23 22" fill="none" xmlns="http://www.w3.org/2000/svg">
<path d="M1.64697 11.204C1.64697 8.915 1.64697 7.771 2.16697 6.823C2.68497 5.874 3.63397 5.286 5.53097 4.108L7.53097 2.867C9.53597 1.622 10.539 1 11.647 1C12.755 1 13.757 1.622 15.763 2.867L17.763 4.108C19.66 5.286 20.609 5.874 21.128 6.823C21.647 7.772 21.647 8.915 21.647 11.203V12.725C21.647 16.625 21.647 18.576 20.475 19.788C19.303 21 17.418 21 13.647 21H9.64697C5.87597 21 3.98997 21 2.81897 19.788C1.64797 18.576 1.64697 16.626 1.64697 12.725V11.204Z" stroke="#2F2F2F" stroke-width="1.5"/>
</svg>
