<svg width="25" height="24" viewBox="0 0 25 24" fill="none" xmlns="http://www.w3.org/2000/svg">
<path d="M2.64697 12.204C2.64697 9.915 2.64697 8.771 3.16697 7.823C3.68497 6.874 4.63397 6.286 6.53097 5.108L8.53097 3.867C10.536 2.622 11.539 2 12.647 2C13.755 2 14.757 2.622 16.763 3.867L18.763 5.108C20.66 6.286 21.609 6.874 22.128 7.823C22.647 8.772 22.647 9.915 22.647 12.203V13.725C22.647 17.625 22.647 19.576 21.475 20.788C20.303 22 18.418 22 14.647 22H10.647C6.87597 22 4.98997 22 3.81897 20.788C2.64797 19.576 2.64697 17.626 2.64697 13.725V12.204Z" stroke="#2F2F2F" stroke-width="1.5"/>
<path d="M12.647 15V18" stroke="#2F2F2F" stroke-width="1.5" stroke-linecap="round"/>
</svg>
