<svg width="24" height="24" viewBox="0 0 24 24" fill="none" xmlns="http://www.w3.org/2000/svg">
<mask id="path-1-inside-1_517_10357" fill="white">
<path fill-rule="evenodd" clip-rule="evenodd" d="M12.5931 23.2579L12.582 23.2599L12.511 23.2949L12.4911 23.2989L12.4771 23.2949L12.406 23.2599C12.3954 23.2566 12.3874 23.2583 12.382 23.2649L12.3781 23.2749L12.361 23.7029L12.366 23.7229L12.3761 23.7359L12.48 23.8099L12.495 23.8139L12.507 23.8099L12.611 23.7359L12.6231 23.7199L12.627 23.7029L12.61 23.2759C12.6074 23.2653 12.6017 23.2593 12.5931 23.2579ZM12.858 23.1449L12.8451 23.1469L12.66 23.2399L12.65 23.2499L12.6471 23.2609L12.665 23.6909L12.6701 23.7029L12.6781 23.7099L12.879 23.8029C12.8917 23.8063 12.9014 23.8036 12.9081 23.7949L12.912 23.7809L12.8781 23.1669C12.8747 23.1549 12.868 23.1476 12.858 23.1449ZM12.143 23.1469C12.1386 23.1443 12.1334 23.1434 12.1283 23.1445C12.1233 23.1456 12.1189 23.1487 12.116 23.1529L12.11 23.1669L12.076 23.7809C12.0767 23.7929 12.0824 23.8009 12.0931 23.8049L12.108 23.8029L12.309 23.7099L12.319 23.7019L12.323 23.6909L12.34 23.2609L12.337 23.2489L12.327 23.2389L12.143 23.1469Z"/>
</mask>
<path d="M12.5931 23.2579L12.7443 22.2751L12.5793 22.2497L12.4151 22.2796L12.5931 23.2579ZM12.582 23.2599L12.4041 22.2816L12.2672 22.3065L12.1424 22.368L12.582 23.2599ZM12.511 23.2949L12.7061 24.27L12.8338 24.2445L12.9507 24.1869L12.511 23.2949ZM12.4911 23.2989L12.2179 24.2551L12.4497 24.3213L12.6861 24.274L12.4911 23.2989ZM12.4771 23.2949L12.0374 24.1869L12.1177 24.2265L12.2039 24.2511L12.4771 23.2949ZM12.406 23.2599L12.8457 22.368L12.7764 22.3338L12.7027 22.3108L12.406 23.2599ZM12.382 23.2649L11.6055 22.6437L11.5135 22.7588L11.4587 22.8957L12.382 23.2649ZM12.3781 23.2749L11.4547 22.9057L11.3912 23.0645L11.3844 23.2355L12.3781 23.2749ZM12.361 23.7029L11.3674 23.6635L11.3618 23.8059L11.3963 23.9441L12.361 23.7029ZM12.366 23.7229L11.4013 23.9641L11.4516 24.1651L11.5778 24.3292L12.366 23.7229ZM12.3761 23.7359L11.5878 24.3422L11.6784 24.46L11.7995 24.5462L12.3761 23.7359ZM12.48 23.8099L11.9035 24.6202L12.0501 24.7245L12.2238 24.7708L12.48 23.8099ZM12.495 23.8139L12.2388 24.7748L12.5268 24.8516L12.8095 24.7573L12.495 23.8139ZM12.507 23.8099L12.8215 24.7533L12.9625 24.7063L13.0836 24.6202L12.507 23.8099ZM12.611 23.7359L13.1876 24.5462L13.3137 24.4564L13.4066 24.3326L12.611 23.7359ZM12.6231 23.7199L13.4186 24.3166L13.5434 24.1502L13.591 23.9477L12.6231 23.7199ZM12.627 23.7029L13.595 23.9307L13.6261 23.7988L13.6207 23.6634L12.627 23.7029ZM12.61 23.2759L13.6037 23.2364L13.5996 23.1341L13.5748 23.0348L12.61 23.2759ZM12.858 23.1449L13.1143 22.1841L12.9129 22.1304L12.7069 22.1621L12.858 23.1449ZM12.8451 23.1469L12.6939 22.1641L12.5387 22.1879L12.3984 22.2585L12.8451 23.1469ZM12.66 23.2399L12.2134 22.3515L12.0702 22.4234L11.9569 22.5368L12.66 23.2399ZM12.65 23.2499L11.9469 22.5468L11.7601 22.7335L11.6907 22.9883L12.65 23.2499ZM12.6471 23.2609L11.6877 22.9993L11.647 23.1483L11.6535 23.3025L12.6471 23.2609ZM12.665 23.6909L11.6715 23.7325L11.6789 23.9097L11.7471 24.0734L12.665 23.6909ZM12.6701 23.7029L11.7521 24.0854L11.8411 24.299L12.0152 24.4513L12.6701 23.7029ZM12.6781 23.7099L12.0232 24.4583L12.1308 24.5524L12.2605 24.6124L12.6781 23.7099ZM12.879 23.8029L12.4615 24.7054L12.5411 24.7423L12.626 24.7646L12.879 23.8029ZM12.9081 23.7949L13.6963 24.4012L13.812 24.2507L13.8642 24.0681L12.9081 23.7949ZM12.912 23.7809L13.8682 24.0541L13.9142 23.8931L13.9049 23.726L12.912 23.7809ZM12.8781 23.1669L13.8709 23.112L13.865 23.0045L13.8362 22.9008L12.8781 23.1669ZM12.143 23.1469L11.6277 23.9974L11.6622 24.0183L11.6983 24.0364L12.143 23.1469ZM12.116 23.1529L11.289 22.6008L11.2381 22.677L11.202 22.7612L12.116 23.1529ZM12.11 23.1669L11.196 22.7752L11.1269 22.9366L11.1172 23.112L12.11 23.1669ZM12.076 23.7809L11.0832 23.726L11.0801 23.781L11.0832 23.8361L12.076 23.7809ZM12.0931 23.8049L11.7439 24.736L11.9774 24.8236L12.2245 24.7906L12.0931 23.8049ZM12.108 23.8029L12.2395 24.7886L12.3889 24.7687L12.5256 24.7054L12.108 23.8029ZM12.309 23.7099L12.7266 24.6124L12.8361 24.5618L12.9302 24.4865L12.309 23.7099ZM12.319 23.7019L12.9402 24.4785L13.1582 24.3041L13.2536 24.0418L12.319 23.7019ZM12.323 23.6909L13.2576 24.0308L13.3106 23.8851L13.3167 23.7302L12.323 23.6909ZM12.34 23.2609L13.3337 23.3002L13.3393 23.1579L13.3048 23.0197L12.34 23.2609ZM12.337 23.2489L13.3018 23.0077L13.235 22.7405L13.0402 22.5458L12.337 23.2489ZM12.327 23.2389L13.0302 22.5358L12.9161 22.4217L12.7718 22.3495L12.327 23.2389ZM12.5931 23.2579L12.4151 22.2796L12.4041 22.2816L12.582 23.2599L12.76 24.2383L12.771 24.2363L12.5931 23.2579ZM12.582 23.2599L12.1424 22.368L12.0714 22.403L12.511 23.2949L12.9507 24.1869L13.0217 24.1519L12.582 23.2599ZM12.511 23.2949L12.316 22.3198L12.296 22.3238L12.4911 23.2989L12.6861 24.274L12.7061 24.27L12.511 23.2949ZM12.4911 23.2989L12.7642 22.3428L12.7502 22.3388L12.4771 23.2949L12.2039 24.2511L12.2179 24.2551L12.4911 23.2989ZM12.4771 23.2949L12.9167 22.403L12.8457 22.368L12.406 23.2599L11.9664 24.1519L12.0374 24.1869L12.4771 23.2949ZM12.406 23.2599L12.7027 22.3108C12.5924 22.2763 12.409 22.2394 12.1893 22.2852C11.9482 22.3354 11.7457 22.4686 11.6055 22.6437L12.382 23.2649L13.1586 23.8861C13.0238 24.0546 12.8279 24.1837 12.5948 24.2322C12.3831 24.2763 12.209 24.2402 12.1094 24.2091L12.406 23.2599ZM12.382 23.2649L11.4587 22.8957L11.4547 22.9057L12.3781 23.2749L13.3014 23.6442L13.3054 23.6342L12.382 23.2649ZM12.3781 23.2749L11.3844 23.2355L11.3674 23.6635L12.361 23.7029L13.3547 23.7424L13.3717 23.3144L12.3781 23.2749ZM12.361 23.7029L11.3963 23.9441L11.4013 23.9641L12.366 23.7229L13.3308 23.4818L13.3258 23.4618L12.361 23.7029ZM12.366 23.7229L11.5778 24.3292L11.5878 24.3422L12.3761 23.7359L13.1643 23.1296L13.1543 23.1166L12.366 23.7229ZM12.3761 23.7359L11.7995 24.5462L11.9035 24.6202L12.48 23.8099L13.0566 22.9997L12.9526 22.9257L12.3761 23.7359ZM12.48 23.8099L12.2238 24.7708L12.2388 24.7748L12.495 23.8139L12.7513 22.8531L12.7363 22.8491L12.48 23.8099ZM12.495 23.8139L12.8095 24.7573L12.8215 24.7533L12.507 23.8099L12.1926 22.8665L12.1806 22.8705L12.495 23.8139ZM12.507 23.8099L13.0836 24.6202L13.1876 24.5462L12.611 23.7359L12.0345 22.9257L11.9305 22.9997L12.507 23.8099ZM12.611 23.7359L13.4066 24.3326L13.4186 24.3166L12.6231 23.7199L11.8275 23.1233L11.8155 23.1393L12.611 23.7359ZM12.6231 23.7199L13.591 23.9477L13.595 23.9307L12.627 23.7029L11.6591 23.4752L11.6551 23.4922L12.6231 23.7199ZM12.627 23.7029L13.6207 23.6634L13.6037 23.2364L12.61 23.2759L11.6164 23.3155L11.6334 23.7425L12.627 23.7029ZM12.61 23.2759L13.5748 23.0348C13.5453 22.917 13.4793 22.7422 13.3268 22.5807C13.1622 22.4064 12.9526 22.3071 12.7443 22.2751L12.5931 23.2579L12.4418 24.2408C12.2422 24.2101 12.0398 24.1145 11.8808 23.9462C11.734 23.7907 11.6721 23.6242 11.6453 23.5171L12.61 23.2759ZM12.858 23.1449L12.7069 22.1621L12.6939 22.1641L12.8451 23.1469L12.9962 24.1298L13.0092 24.1278L12.858 23.1449ZM12.8451 23.1469L12.3984 22.2585L12.2134 22.3515L12.66 23.2399L13.1067 24.1284L13.2917 24.0354L12.8451 23.1469ZM12.66 23.2399L11.9569 22.5368L11.9469 22.5468L12.65 23.2499L13.3532 23.9531L13.3632 23.9431L12.66 23.2399ZM12.65 23.2499L11.6907 22.9883L11.6877 22.9993L12.6471 23.2609L13.6064 23.5225L13.6094 23.5115L12.65 23.2499ZM12.6471 23.2609L11.6535 23.3025L11.6715 23.7325L12.665 23.6909L13.6586 23.6493L13.6406 23.2193L12.6471 23.2609ZM12.665 23.6909L11.7471 24.0734L11.7521 24.0854L12.6701 23.7029L13.588 23.3204L13.583 23.3084L12.665 23.6909ZM12.6701 23.7029L12.0152 24.4513L12.0232 24.4583L12.6781 23.7099L13.3329 22.9615L13.3249 22.9545L12.6701 23.7029ZM12.6781 23.7099L12.2605 24.6124L12.4615 24.7054L12.879 23.8029L13.2966 22.9004L13.0956 22.8074L12.6781 23.7099ZM12.879 23.8029L12.626 24.7646C12.7514 24.7976 12.942 24.8223 13.1602 24.7621C13.3923 24.698 13.5738 24.5604 13.6963 24.4012L12.9081 23.7949L12.1198 23.1886C12.2356 23.0381 12.4089 22.9062 12.6314 22.8448C12.84 22.7873 13.0194 22.8116 13.1321 22.8413L12.879 23.8029ZM12.9081 23.7949L13.8642 24.0681L13.8682 24.0541L12.912 23.7809L11.9559 23.5078L11.9519 23.5218L12.9081 23.7949ZM12.912 23.7809L13.9049 23.726L13.8709 23.112L12.8781 23.1669L11.8852 23.2219L11.9192 23.8359L12.912 23.7809ZM12.8781 23.1669L13.8362 22.9008C13.7611 22.6303 13.539 22.2974 13.1143 22.1841L12.858 23.1449L12.6018 24.1058C12.4309 24.0602 12.2658 23.9655 12.1348 23.8214C12.0101 23.6843 11.9494 23.5394 11.9199 23.4331L12.8781 23.1669ZM12.143 23.1469L12.6584 22.2965C12.4348 22.161 12.1676 22.1171 11.9126 22.1738L12.1283 23.1445L12.3441 24.1153C12.0991 24.1697 11.8425 24.1276 11.6277 23.9974L12.143 23.1469ZM12.1283 23.1445L11.9126 22.1738C11.6576 22.2305 11.4341 22.3834 11.289 22.6008L12.116 23.1529L12.9431 23.705C12.8037 23.9139 12.5891 24.0608 12.3441 24.1153L12.1283 23.1445ZM12.116 23.1529L11.202 22.7612L11.196 22.7752L12.11 23.1669L13.0241 23.5587L13.0301 23.5447L12.116 23.1529ZM12.11 23.1669L11.1172 23.112L11.0832 23.726L12.076 23.7809L13.0689 23.8359L13.1029 23.2219L12.11 23.1669ZM12.076 23.7809L11.0832 23.8361C11.0915 23.9866 11.1362 24.1828 11.2693 24.3707C11.4049 24.5621 11.5833 24.6758 11.7439 24.736L12.0931 23.8049L12.4422 22.8738C12.5922 22.9301 12.7624 23.0378 12.8923 23.2211C13.0197 23.4011 13.0612 23.5872 13.0689 23.7258L12.076 23.7809ZM12.0931 23.8049L12.2245 24.7906L12.2395 24.7886L12.108 23.8029L11.9766 22.8172L11.9616 22.8193L12.0931 23.8049ZM12.108 23.8029L12.5256 24.7054L12.7266 24.6124L12.309 23.7099L11.8915 22.8074L11.6905 22.9004L12.108 23.8029ZM12.309 23.7099L12.9302 24.4865L12.9402 24.4785L12.319 23.7019L11.6979 22.9254L11.6879 22.9334L12.309 23.7099ZM12.319 23.7019L13.2536 24.0418L13.2576 24.0308L12.323 23.6909L11.3885 23.3511L11.3845 23.3621L12.319 23.7019ZM12.323 23.6909L13.3167 23.7302L13.3337 23.3002L12.34 23.2609L11.3464 23.2217L11.3294 23.6517L12.323 23.6909ZM12.34 23.2609L13.3048 23.0197L13.3018 23.0077L12.337 23.2489L11.3723 23.4902L11.3753 23.5022L12.34 23.2609ZM12.337 23.2489L13.0402 22.5458L13.0302 22.5358L12.327 23.2389L11.6239 23.9421L11.6339 23.9521L12.337 23.2489ZM12.327 23.2389L12.7718 22.3495L12.5878 22.2575L12.143 23.1469L11.6983 24.0364L11.8823 24.1284L12.327 23.2389Z" fill="white" mask="url(#path-1-inside-1_517_10357)"/>
<path d="M6.85938 17.1172C6.98734 17.0799 7.12532 17.0951 7.24219 17.1592C7.35885 17.2233 7.44508 17.3312 7.48242 17.459C7.51976 17.587 7.50455 17.7249 7.44043 17.8418C7.3763 17.9586 7.26857 18.0457 7.14063 18.083C6.61745 18.2358 6.21299 18.4047 5.93164 18.5752L5.22656 19.002L5.93262 19.4258C6.14893 19.5558 6.44024 19.6865 6.80273 19.8096L7.18848 19.9297C8.39912 20.2756 10.1001 20.4971 12 20.4971C13.8999 20.4971 15.6009 20.2756 16.8115 19.9297V19.9307C17.3593 19.7746 17.7792 19.5989 18.0674 19.4258L18.7715 19.0029L18.0693 18.5752C17.7897 18.405 17.3868 18.2371 16.8672 18.085H16.8682C16.7422 18.046 16.6367 17.9589 16.5742 17.8428C16.5117 17.7266 16.4973 17.5905 16.5342 17.4639C16.5711 17.3375 16.6557 17.2304 16.7705 17.166C16.8569 17.1176 16.9554 17.0965 17.0527 17.1035L17.1494 17.1201C17.7877 17.3071 18.3408 17.5368 18.748 17.8145V17.8154C19.1412 18.0857 19.5029 18.4771 19.5029 19C19.5029 19.5283 19.1331 19.923 18.7324 20.1943C18.3155 20.4752 17.746 20.7086 17.0879 20.8965L17.0869 20.8975C15.765 21.2764 13.9673 21.5029 12 21.5029C10.0327 21.5029 8.23499 21.2764 6.91309 20.8975L6.91211 20.8965C6.25482 20.7088 5.68636 20.4757 5.26953 20.1953C4.86741 19.9224 4.49707 19.5285 4.49707 19C4.49707 18.4771 4.85878 18.0857 5.25195 17.8154L5.25098 17.8145C5.66019 17.5353 6.217 17.3047 6.85938 17.1172ZM12 2.49707C13.8573 2.49707 15.6389 3.23457 16.9521 4.54785C18.2654 5.86113 19.0029 7.64274 19.0029 9.5C19.0029 11.8801 17.7044 13.849 16.2959 15.291C15.7371 15.8571 15.1362 16.3802 14.499 16.8564L14.498 16.8574C14.2179 17.0678 13.7448 17.3792 13.3301 17.6445C13.1252 17.7757 12.9382 17.8929 12.8027 17.9775C12.7352 18.0198 12.6804 18.0537 12.6426 18.0771L12.5996 18.1045C12.4169 18.2083 12.2101 18.2627 12 18.2627C11.7908 18.2627 11.5854 18.2085 11.4033 18.1055C10.9103 17.8195 10.4293 17.5134 9.96191 17.1875L9.49902 16.8555C8.86166 16.3809 8.26129 15.8576 7.7041 15.291C6.29558 13.849 4.99707 11.8801 4.99707 9.5C4.99707 7.64274 5.73457 5.86113 7.04785 4.54785C8.36113 3.23457 10.1427 2.49707 12 2.49707ZM12 3.50293C10.4094 3.50293 8.88446 4.13507 7.75977 5.25977C6.63507 6.38446 6.00293 7.90944 6.00293 9.5C6.00293 11.5026 7.09915 13.2333 8.4248 14.5879C9.30176 15.4848 10.2524 16.1905 10.9834 16.6709L11.2832 16.8633L11.29 16.8672L11.7422 17.1416L12 17.2969L12.2578 17.1416L12.71 16.8672L12.7178 16.8633C13.4734 16.3889 14.5728 15.6131 15.5752 14.5889C16.9007 13.2335 17.9971 11.5037 17.9971 9.5C17.9971 7.90944 17.3649 6.38446 16.2402 5.25977C15.1155 4.13507 13.5906 3.50293 12 3.50293ZM12 6.99707C12.3287 6.99707 12.6544 7.06172 12.958 7.1875C13.2616 7.31328 13.5372 7.49809 13.7695 7.73047C14.0019 7.96284 14.1867 8.23839 14.3125 8.54199C14.4383 8.84564 14.5029 9.17133 14.5029 9.5C14.5029 9.82867 14.4383 10.1544 14.3125 10.458C14.1867 10.7616 14.0019 11.0372 13.7695 11.2695C13.5372 11.5019 13.2616 11.6867 12.958 11.8125C12.6544 11.9383 12.3287 12.0029 12 12.0029C11.3362 12.0029 10.6998 11.7389 10.2305 11.2695C9.76111 10.8002 9.49707 10.1638 9.49707 9.5C9.49707 8.83622 9.7611 8.19983 10.2305 7.73047C10.6998 7.2611 11.3362 6.99707 12 6.99707ZM12 8.00293C11.6029 8.00293 11.2222 8.16062 10.9414 8.44141C10.6606 8.72219 10.5029 9.10291 10.5029 9.5C10.5029 9.89708 10.6606 10.2778 10.9414 10.5586C11.2222 10.8394 11.6029 10.9971 12 10.9971C12.3971 10.9971 12.7778 10.8394 13.0586 10.5586C13.3394 10.2778 13.4971 9.89708 13.4971 9.5C13.4971 9.10291 13.3394 8.72219 13.0586 8.44141C12.7778 8.16062 12.3971 8.00293 12 8.00293Z" fill="black" stroke="white" stroke-width="0.994419"/>
</svg>
