<svg width="24" height="24" viewBox="0 0 24 24" fill="none" xmlns="http://www.w3.org/2000/svg">
<path d="M12 3.74707C12.067 3.74707 12.1313 3.77388 12.1787 3.82129C12.2261 3.8687 12.2529 3.93296 12.2529 4C12.2529 4.06704 12.2261 4.1313 12.1787 4.17871C12.1313 4.22612 12.067 4.25293 12 4.25293C9.94531 4.25293 7.97437 5.0686 6.52148 6.52148C5.0686 7.97437 4.25293 9.94531 4.25293 12L4.2627 12.3838C4.35761 14.2987 5.15932 16.1164 6.52148 17.4785C7.97437 18.9314 9.94531 19.7471 12 19.7471C12.067 19.7471 12.1313 19.7739 12.1787 19.8213C12.2261 19.8687 12.2529 19.933 12.2529 20C12.2529 20.067 12.2261 20.1313 12.1787 20.1787C12.1313 20.2261 12.067 20.2529 12 20.2529C9.81122 20.2529 7.71176 19.3836 6.16406 17.8359C4.61636 16.2882 3.74707 14.1888 3.74707 12C3.74707 9.81122 4.61636 7.71176 6.16406 6.16406C7.71176 4.61636 9.81122 3.74707 12 3.74707Z" stroke="white" stroke-width="0.994419"/>
<path d="M17.0146 8.76587C17.0636 8.76508 17.1114 8.77848 17.1523 8.80396L17.1914 8.83423L20.1777 11.8206V11.8215C20.2251 11.8689 20.252 11.9333 20.252 12.0002C20.2519 12.0503 20.2372 12.0988 20.21 12.1399L20.1777 12.179L17.1787 15.179L17.1719 15.1848L17.166 15.1907C17.1429 15.2155 17.115 15.2355 17.084 15.2493C17.053 15.2631 17.0193 15.2711 16.9854 15.2717C16.9516 15.2723 16.918 15.2658 16.8867 15.2532C16.8553 15.2405 16.8267 15.2215 16.8027 15.1975C16.7788 15.1735 16.7598 15.145 16.7471 15.1135C16.7344 15.0821 16.7279 15.0479 16.7285 15.0139C16.7292 14.9803 16.7364 14.947 16.75 14.9163C16.7637 14.8854 16.7839 14.8573 16.8086 14.8342L16.8213 14.8215L18.542 13.1018L19.3906 12.2532H10C9.93299 12.2532 9.86869 12.2263 9.82129 12.179C9.77392 12.1316 9.74711 12.0672 9.74707 12.0002C9.74707 11.9332 9.77393 11.8689 9.82129 11.8215C9.8687 11.7741 9.93296 11.7473 10 11.7473H19.3906L18.542 10.8987L16.833 9.19067H16.834C16.7894 9.14277 16.7645 9.07935 16.7656 9.01392C16.7669 8.94861 16.7937 8.8863 16.8398 8.84009C16.8862 8.79377 16.9492 8.76702 17.0146 8.76587Z" fill="black" stroke="white" stroke-width="0.994419"/>
</svg>
