<svg width="17" height="16" viewBox="0 0 17 16" fill="none" xmlns="http://www.w3.org/2000/svg">
<path d="M12.8335 14C14.1221 14 15.1668 12.9554 15.1668 11.6667C15.1668 10.378 14.1221 9.33337 12.8335 9.33337C11.5448 9.33337 10.5001 10.378 10.5001 11.6667C10.5001 12.9554 11.5448 14 12.8335 14Z" stroke="#2F2F2F" stroke-linecap="round" stroke-linejoin="round"/>
<path d="M4.16683 14C5.45549 14 6.50016 12.9554 6.50016 11.6667C6.50016 10.378 5.45549 9.33337 4.16683 9.33337C2.87816 9.33337 1.8335 10.378 1.8335 11.6667C1.8335 12.9554 2.87816 14 4.16683 14Z" stroke="#2F2F2F" stroke-linecap="round" stroke-linejoin="round"/>
<path d="M10.5002 3.99996C10.8684 3.99996 11.1668 3.70148 11.1668 3.33329C11.1668 2.9651 10.8684 2.66663 10.5002 2.66663C10.132 2.66663 9.8335 2.9651 9.8335 3.33329C9.8335 3.70148 10.132 3.99996 10.5002 3.99996Z" stroke="#2F2F2F" stroke-linecap="round" stroke-linejoin="round"/>
<path d="M8.50012 11.6667V9.33337L6.50012 7.33337L9.16679 5.33337L10.5001 7.33337H11.8335" stroke="#2F2F2F" stroke-linecap="round" stroke-linejoin="round"/>
</svg>
