<svg width="24" height="25" viewBox="0 0 24 25" fill="none" xmlns="http://www.w3.org/2000/svg">
<path d="M2.53001 15.6584C2.31701 17.0524 3.26801 18.0194 4.43201 18.5014C8.89501 20.3514 15.105 20.3514 19.568 18.5014C20.732 18.0194 21.683 17.0514 21.47 15.6584C21.34 14.8014 20.693 14.0884 20.214 13.3914C19.587 12.4674 19.525 11.4604 19.524 10.3884C19.525 6.24637 16.157 2.88837 12 2.88837C7.843 2.88837 4.47501 6.24637 4.47501 10.3884C4.47501 11.4604 4.41301 12.4684 3.78501 13.3914C3.30701 14.0884 2.66101 14.8014 2.53001 15.6584Z" stroke="white" stroke-width="1.49163" stroke-linecap="round" stroke-linejoin="round"/>
<path d="M8 19.8884C8.458 21.6134 10.076 22.8884 12 22.8884C13.925 22.8884 15.541 21.6134 16 19.8884" stroke="white" stroke-width="1.49163" stroke-linecap="round" stroke-linejoin="round"/>
</svg>
