<svg width="17" height="17" viewBox="0 0 17 17" fill="none" xmlns="http://www.w3.org/2000/svg">
<path d="M5.86558 11.2031L11.2717 5.7969M8.56866 15.528C10.4326 15.528 12.2202 14.7875 13.5382 13.4695C14.8562 12.1515 15.5967 10.3639 15.5967 8.49998C15.5967 6.63604 14.8562 4.84843 13.5382 3.53043C12.2202 2.21242 10.4326 1.47197 8.56866 1.47197C6.70472 1.47197 4.91711 2.21242 3.59911 3.53043C2.2811 4.84843 1.54065 6.63604 1.54065 8.49998C1.54065 10.3639 2.2811 12.1515 3.59911 13.4695C4.91711 14.7875 6.70472 15.528 8.56866 15.528Z" stroke="white" stroke-width="1.14286" stroke-linecap="round" stroke-linejoin="round"/>
<path d="M6.40609 6.87811C6.54948 6.87811 6.68698 6.82115 6.78837 6.71976C6.88975 6.61838 6.94671 6.48087 6.94671 6.33749C6.94671 6.19411 6.88975 6.0566 6.78837 5.95522C6.68698 5.85383 6.54948 5.79688 6.40609 5.79688C6.26271 5.79688 6.12521 5.85383 6.02382 5.95522C5.92244 6.0566 5.86548 6.19411 5.86548 6.33749C5.86548 6.48087 5.92244 6.61838 6.02382 6.71976C6.12521 6.82115 6.26271 6.87811 6.40609 6.87811ZM10.731 11.203C10.8744 11.203 11.0119 11.1461 11.1133 11.0447C11.2147 10.9433 11.2716 10.8058 11.2716 10.6624C11.2716 10.519 11.2147 10.3815 11.1133 10.2801C11.0119 10.1788 10.8744 10.1218 10.731 10.1218C10.5876 10.1218 10.4501 10.1788 10.3488 10.2801C10.2474 10.3815 10.1904 10.519 10.1904 10.6624C10.1904 10.8058 10.2474 10.9433 10.3488 11.0447C10.4501 11.1461 10.5876 11.203 10.731 11.203Z" stroke="white" stroke-width="1.14286" stroke-linecap="round" stroke-linejoin="round"/>
</svg>
