<svg width="40" height="40" viewBox="0 0 40 40" fill="none" xmlns="http://www.w3.org/2000/svg">
<path d="M5.83325 9.99996L11.6666 4.16663M5.83325 15L11.6666 20.8333H5.83325V4.16663H35.8333V20.8333H22.4999M35.8333 9.99996L29.9999 4.16663M35.8333 15L29.9999 20.8333M4.99992 39.1666L14.1666 34.1666H25.8333L34.9999 29.1666L34.1666 26.6666L25.8333 28.3333L14.9999 27.5L18.3333 23.3333L17.4999 20.8333L9.16659 25.8333L4.99992 30.8333L0.833252 32.5" stroke="white" stroke-width="1.33333" stroke-miterlimit="10" stroke-linecap="round" stroke-linejoin="round"/>
<path d="M22.4997 9.16667H19.1663L18.333 10.8333L19.1663 12.5H22.4997L23.333 14.1667L22.4997 15.8333H19.1663M20.833 9.16667V7.5M20.833 17.5V15.8333" stroke="white" stroke-width="1.33333" stroke-miterlimit="10" stroke-linecap="round" stroke-linejoin="round"/>
</svg>
