<svg width="24" height="24" viewBox="0 0 24 24" fill="none" xmlns="http://www.w3.org/2000/svg">
<path d="M12 2.49707C17.2484 2.49707 21.5029 6.7516 21.5029 12C21.5029 17.2484 17.2484 21.5029 12 21.5029C6.7516 21.5029 2.49707 17.2484 2.49707 12C2.49707 6.7516 6.7516 2.49707 12 2.49707ZM12 3.50293C9.7464 3.50293 7.58475 4.39768 5.99121 5.99121C4.39768 7.58475 3.50293 9.7464 3.50293 12C3.50293 14.2536 4.39768 16.4153 5.99121 18.0088C7.58475 19.6023 9.7464 20.4971 12 20.4971C14.2536 20.4971 16.4153 19.6023 18.0088 18.0088C19.6023 16.4153 20.4971 14.2536 20.4971 12C20.4971 9.7464 19.6023 7.58475 18.0088 5.99121C16.4153 4.39768 14.2536 3.50293 12 3.50293ZM12.5029 15.4971V16.5029H11.4971V15.4971H12.5029ZM11.0635 7.14551C11.5689 6.97969 12.1098 6.95102 12.6299 7.0625C13.1498 7.17399 13.6305 7.42205 14.0234 7.78027C14.4165 8.13862 14.7073 8.59497 14.8662 9.10254C15.0251 9.61017 15.0463 10.1514 14.9277 10.6699C14.8091 11.1883 14.555 11.6657 14.1914 12.0537C13.8278 12.4417 13.368 12.727 12.8584 12.8789L12.5029 12.9844V13.5029H11.4971V12.5C11.4971 12.3667 11.5502 12.2388 11.6445 12.1445C11.7388 12.0502 11.8667 11.9971 12 11.9971C12.3782 11.997 12.7488 11.8898 13.0684 11.6875C13.3879 11.4852 13.6439 11.1964 13.8057 10.8545C13.9674 10.5126 14.0286 10.1313 13.9824 9.75586C13.9362 9.38054 13.7837 9.02583 13.5439 8.7334C13.3042 8.44116 12.9868 8.22234 12.6279 8.10352C12.2688 7.98467 11.8826 7.97084 11.5156 8.0625C11.1488 8.15419 10.8156 8.34842 10.5547 8.62207C10.4102 8.77362 10.2912 8.94604 10.2012 9.13281L9.19434 8.93066C9.32309 8.59282 9.51121 8.27936 9.75293 8.00684C10.1059 7.60892 10.5581 7.31132 11.0635 7.14551Z" stroke="white" stroke-width="0.994419"/>
</svg>
