<svg width="26" height="26" viewBox="0 0 26 26" fill="none" xmlns="http://www.w3.org/2000/svg">
<g filter="url(#filter0_d_2025_6872)">
<path d="M20.9321 10.0436C20.7433 11.4836 20.166 12.845 19.2622 13.9818C18.3585 15.1186 17.1623 15.988 15.802 16.4966C14.4418 17.0053 12.9687 17.1341 11.5407 16.8692C10.1128 16.6043 8.78395 15.9557 7.69664 14.9929C6.60933 14.0302 5.8046 12.7896 5.36876 11.4043C4.93292 10.0189 4.8824 8.54106 5.22264 7.12919C5.56287 5.71733 6.28102 4.42471 7.30006 3.38996C8.3191 2.35522 9.60059 1.61739 11.0071 1.25561C14.9061 0.255608 18.9421 2.26261 20.4321 6.00261" stroke="black" stroke-width="2" stroke-linecap="round" stroke-linejoin="round" shape-rendering="crispEdges"/>
</g>
<path d="M20.999 1.00269V6.00269H15.999" stroke="black" stroke-width="2" stroke-linecap="round" stroke-linejoin="round"/>
<defs>
<filter id="filter0_d_2025_6872" x="0" y="0" width="25.9321" height="26.0034" filterUnits="userSpaceOnUse" color-interpolation-filters="sRGB">
<feFlood flood-opacity="0" result="BackgroundImageFix"/>
<feColorMatrix in="SourceAlpha" type="matrix" values="0 0 0 0 0 0 0 0 0 0 0 0 0 0 0 0 0 0 127 0" result="hardAlpha"/>
<feOffset dy="4"/>
<feGaussianBlur stdDeviation="2"/>
<feComposite in2="hardAlpha" operator="out"/>
<feColorMatrix type="matrix" values="0 0 0 0 0 0 0 0 0 0 0 0 0 0 0 0 0 0 0.25 0"/>
<feBlend mode="normal" in2="BackgroundImageFix" result="effect1_dropShadow_2025_6872"/>
<feBlend mode="normal" in="SourceGraphic" in2="effect1_dropShadow_2025_6872" result="shape"/>
</filter>
</defs>
</svg>
