<svg width="17" height="19" viewBox="0 0 17 19" fill="none" xmlns="http://www.w3.org/2000/svg">
<path fill-rule="evenodd" clip-rule="evenodd" d="M10.4816 3.20338C10.4817 2.48501 10.7333 1.78934 11.1928 1.23711C11.6522 0.684886 12.2905 0.310963 12.9969 0.180245C13.7033 0.0495269 14.4331 0.170265 15.0598 0.521504C15.6864 0.872743 16.1703 1.43231 16.4274 2.10308C16.6846 2.77385 16.6987 3.51349 16.4674 4.19361C16.2361 4.87372 15.774 5.45139 15.1613 5.82635C14.5485 6.20131 13.8238 6.34988 13.113 6.24628C12.4021 6.14268 11.75 5.79345 11.2697 5.25921L8.69923 6.6613L5.82315 8.30464C6.22564 9.01222 6.33111 9.85054 6.11643 10.6358L11.2697 13.4466C11.7739 12.8864 12.4662 12.5309 13.2153 12.4476C13.9643 12.3643 14.7178 12.559 15.3327 12.9947C15.9477 13.4304 16.3811 14.0768 16.5509 14.8111C16.7206 15.5454 16.6147 16.3164 16.2534 16.9778C15.8921 17.6391 15.3004 18.1448 14.5908 18.3986C13.8812 18.6525 13.1031 18.6369 12.4042 18.3548C11.7054 18.0727 11.1345 17.5438 10.7999 16.8685C10.4654 16.1932 10.3905 15.4185 10.5895 14.6916L5.4362 11.8818C5.04346 12.3186 4.53381 12.6338 3.96755 12.79C3.40129 12.9463 2.80212 12.937 2.24094 12.7634C1.67977 12.5898 1.18007 12.2591 0.800969 11.8103C0.421871 11.3616 0.179244 10.8137 0.101795 10.2314C0.024346 9.64912 0.115317 9.05683 0.363945 8.52462C0.612572 7.99241 1.00845 7.54255 1.50474 7.22829C2.00102 6.91402 2.57694 6.7485 3.16436 6.7513C3.75177 6.75409 4.32609 6.9251 4.81936 7.24408L8.00764 5.42193L10.5895 4.01322C10.5182 3.74916 10.482 3.47689 10.4816 3.20338ZM13.5564 1.54774C13.1173 1.54774 12.6962 1.72218 12.3857 2.03267C12.0752 2.34316 11.9008 2.76428 11.9008 3.20338C11.9008 3.64248 12.0752 4.0636 12.3857 4.37409C12.6962 4.68458 13.1173 4.85902 13.5564 4.85902C13.9955 4.85902 14.4166 4.68458 14.7271 4.37409C15.0376 4.0636 15.212 3.64248 15.212 3.20338C15.212 2.76428 15.0376 2.34316 14.7271 2.03267C14.4166 1.72218 13.9955 1.54774 13.5564 1.54774ZM3.14953 8.17029C2.71043 8.17029 2.28931 8.34472 1.97882 8.65522C1.66832 8.96571 1.49389 9.38683 1.49389 9.82593C1.49389 10.265 1.66832 10.6861 1.97882 10.9966C2.28931 11.3071 2.71043 11.4816 3.14953 11.4816C3.58863 11.4816 4.00975 11.3071 4.32024 10.9966C4.63073 10.6861 4.80517 10.265 4.80517 9.82593C4.80517 9.38683 4.63073 8.96571 4.32024 8.65522C4.00975 8.34472 3.58863 8.17029 3.14953 8.17029ZM11.9008 15.5024C11.9008 15.0633 12.0752 14.6422 12.3857 14.3317C12.6962 14.0212 13.1173 13.8468 13.5564 13.8468C13.9955 13.8468 14.4166 14.0212 14.7271 14.3317C15.0376 14.6422 15.212 15.0633 15.212 15.5024C15.212 15.9415 15.0376 16.3626 14.7271 16.6731C14.4166 16.9836 13.9955 17.158 13.5564 17.158C13.1173 17.158 12.6962 16.9836 12.3857 16.6731C12.0752 16.3626 11.9008 15.9415 11.9008 15.5024Z" fill="#2F2F2F"/>
</svg>
