<svg width="25" height="24" viewBox="0 0 25 24" fill="none" xmlns="http://www.w3.org/2000/svg">
<path d="M20.3293 10.621V19C20.3293 19.5304 20.1186 20.0391 19.7436 20.4142C19.3685 20.7893 18.8598 21 18.3293 21H6.33734C5.80708 20.9997 5.29863 20.7889 4.92377 20.4139C4.54892 20.0388 4.33834 19.5303 4.33834 19V10.621M7.83534 8.75L8.33534 3M7.83534 8.75C7.83534 11.652 12.3333 11.652 12.3333 8.75M7.83534 8.75C7.83534 11.926 2.68034 11.27 3.40234 8.502L4.44734 4.495C4.55902 4.06703 4.80942 3.68815 5.15936 3.41765C5.5093 3.14714 5.93904 3.00026 6.38134 3H18.2853C18.7276 3.00026 19.1574 3.14714 19.5073 3.41765C19.8573 3.68815 20.1077 4.06703 20.2193 4.495L21.2643 8.502C21.9863 11.271 16.8313 11.926 16.8313 8.75M12.3333 8.75V3M12.3333 8.75C12.3333 11.652 16.8313 11.652 16.8313 8.75M16.8313 8.75L16.3313 3" stroke="white" stroke-width="1.5" stroke-linecap="round" stroke-linejoin="round"/>
</svg>
