<svg width="25" height="24" viewBox="0 0 25 24" fill="none" xmlns="http://www.w3.org/2000/svg">
<path d="M20.5842 10.621V19C20.5842 19.5304 20.3735 20.0391 19.9984 20.4142C19.6234 20.7893 19.1147 21 18.5842 21H6.59222C6.06196 20.9997 5.55351 20.7889 5.17866 20.4139C4.8038 20.0388 4.59322 19.5303 4.59322 19V10.621M8.09022 8.75L8.59022 3M8.09022 8.75C8.09022 11.652 12.5882 11.652 12.5882 8.75M8.09022 8.75C8.09022 11.926 2.93522 11.27 3.65722 8.502L4.70222 4.495C4.8139 4.06703 5.0643 3.68815 5.41424 3.41765C5.76418 3.14714 6.19392 3.00026 6.63622 3H18.5402C18.9825 3.00026 19.4123 3.14714 19.7622 3.41765C20.1121 3.68815 20.3625 4.06703 20.4742 4.495L21.5192 8.502C22.2412 11.271 17.0862 11.926 17.0862 8.75M12.5882 8.75V3M12.5882 8.75C12.5882 11.652 17.0862 11.652 17.0862 8.75M17.0862 8.75L16.5862 3" stroke="black" stroke-width="1.5" stroke-linecap="round" stroke-linejoin="round"/>
</svg>
