<svg width="10" height="10" viewBox="0 0 10 10" fill="none" xmlns="http://www.w3.org/2000/svg">
<mask id="path-1-inside-1_1304_102" fill="white">
<path d="M8.8125 1.19169C8.65331 1.02943 8.45144 0.915532 8.23024 0.86318C8.00904 0.810829 7.77753 0.822158 7.5625 0.895858L1.66667 2.86669C1.42888 2.94452 1.22112 3.09425 1.07206 3.29521C0.923008 3.49616 0.840007 3.73843 0.834519 3.98857C0.829032 4.23871 0.901328 4.48438 1.04143 4.69168C1.18153 4.89898 1.38252 5.05767 1.61667 5.14586L3.8 5.97919C3.84972 5.9982 3.89498 6.02725 3.93298 6.06453C3.97097 6.10181 4.00088 6.14651 4.02083 6.19586L4.85417 8.38336C4.93899 8.61419 5.09292 8.81325 5.29499 8.95343C5.49705 9.0936 5.73741 9.16807 5.98333 9.16669H6.0125C6.26292 9.16213 6.50565 9.07933 6.70664 8.92989C6.90764 8.78045 7.05684 8.57186 7.13333 8.33336L9.10417 2.42919C9.17584 2.21625 9.18651 1.9875 9.13497 1.76881C9.08342 1.55012 8.97173 1.35021 8.8125 1.19169ZM8.33333 2.16669L6.34167 8.07502C6.31854 8.1498 6.27209 8.21522 6.20911 8.2617C6.14614 8.30818 6.06994 8.33329 5.99167 8.33336C5.91386 8.33463 5.8375 8.3122 5.77275 8.26903C5.708 8.22586 5.65792 8.16401 5.62917 8.09169L4.79583 5.90419C4.73565 5.74511 4.64256 5.60053 4.52265 5.4799C4.40274 5.35928 4.25872 5.26533 4.1 5.20419L1.9125 4.37086C1.83871 4.34382 1.77527 4.29427 1.73116 4.22923C1.68705 4.16418 1.66449 4.08692 1.66667 4.00836C1.66673 3.93008 1.69184 3.85389 1.73832 3.79091C1.78481 3.72793 1.85022 3.68148 1.925 3.65836L7.83333 1.68752C7.90117 1.65988 7.97556 1.65247 8.04751 1.6662C8.11946 1.67993 8.1859 1.71421 8.23879 1.76489C8.29168 1.81558 8.32875 1.8805 8.34553 1.9518C8.3623 2.0231 8.35807 2.09774 8.33333 2.16669Z"/>
</mask>
<path d="M8.8125 1.19169L8.10259 1.88814L8.1109 1.89641L8.8125 1.19169ZM7.5625 0.895858L7.87777 1.83901L7.88491 1.83656L7.5625 0.895858ZM1.66667 2.86669L1.97602 3.81179L1.98193 3.80981L1.66667 2.86669ZM1.61667 5.14586L1.97127 4.2168L1.96716 4.21526L1.61667 5.14586ZM3.8 5.97919L4.15518 5.05037L4.1546 5.05014L3.8 5.97919ZM4.02083 6.19586L4.95011 5.84185L4.94651 5.83241L4.94273 5.82305L4.02083 6.19586ZM4.85417 8.38336L5.78762 8.04033L5.78344 8.02935L4.85417 8.38336ZM5.98333 9.16669L5.98333 8.17226L5.97774 8.17229L5.98333 9.16669ZM6.0125 9.16669V10.1611H6.02155L6.0306 10.1609L6.0125 9.16669ZM7.13333 8.33336L6.19001 8.01847L6.18642 8.02967L7.13333 8.33336ZM9.10417 2.42919L8.1617 2.11196L8.16091 2.11433L9.10417 2.42919ZM8.33333 2.16669L7.39733 1.83088L7.39408 1.83993L7.39101 1.84904L8.33333 2.16669ZM6.34167 8.07502L5.39935 7.75737L5.39534 7.76925L5.39164 7.78122L6.34167 8.07502ZM5.99167 8.33336L5.99086 7.33894L5.98311 7.33894L5.97536 7.33907L5.99167 8.33336ZM5.62917 8.09169L4.69989 8.4457L4.70245 8.4524L4.70509 8.45906L5.62917 8.09169ZM4.79583 5.90419L3.86575 6.25608L3.86656 6.2582L4.79583 5.90419ZM4.1 5.20419L4.45743 4.27622L4.45401 4.27492L4.1 5.20419ZM1.9125 4.37086L2.26654 3.44151L2.25464 3.43715L1.9125 4.37086ZM1.66667 4.00836L2.6607 4.03592L2.66107 4.02255L2.66109 4.00916L1.66667 4.00836ZM1.925 3.65836L2.21881 4.60838L2.22927 4.60515L2.23966 4.60168L1.925 3.65836ZM7.83333 1.68752L8.148 2.63085L8.17869 2.62061L8.20865 2.6084L7.83333 1.68752ZM8.8125 1.19169L9.52236 0.495292C9.23171 0.199025 8.86313 -0.00892371 8.45926 -0.104508L8.23024 0.86318L8.00122 1.83087C8.03975 1.83999 8.07491 1.85983 8.10264 1.88809L8.8125 1.19169ZM8.23024 0.86318L8.45926 -0.104508C8.05538 -0.200092 7.6327 -0.179407 7.24009 -0.0448446L7.5625 0.895858L7.88491 1.83656C7.92237 1.82372 7.96269 1.82175 8.00122 1.83087L8.23024 0.86318ZM7.5625 0.895858L7.24724 -0.0472643L1.3514 1.92357L1.66667 2.86669L1.98193 3.80981L7.87776 1.83898L7.5625 0.895858ZM1.66667 2.86669L1.35732 1.92161C0.923842 2.0635 0.5451 2.33645 0.273375 2.70278L1.07206 3.29521L1.87075 3.88763C1.89714 3.85205 1.93392 3.82555 1.97602 3.81177L1.66667 2.86669ZM1.07206 3.29521L0.273375 2.70278C0.00165048 3.06911 -0.149657 3.51076 -0.159661 3.96676L0.834519 3.98857L1.8287 4.01038C1.82967 3.96609 1.84436 3.92321 1.87075 3.88763L1.07206 3.29521ZM0.834519 3.98857L-0.159661 3.96676C-0.169664 4.42275 -0.0378705 4.87061 0.217528 5.24851L1.04143 4.69168L1.86533 4.13485C1.84053 4.09815 1.82773 4.05466 1.8287 4.01038L0.834519 3.98857ZM1.04143 4.69168L0.217528 5.24851C0.472926 5.6264 0.839333 5.9157 1.26617 6.07646L1.61667 5.14586L1.96716 4.21526C1.92571 4.19964 1.89013 4.17155 1.86533 4.13485L1.04143 4.69168ZM1.61667 5.14586L1.26207 6.07491L3.4454 6.90824L3.8 5.97919L4.1546 5.05014L1.97127 4.21681L1.61667 5.14586ZM3.8 5.97919L3.44482 6.90802C3.36695 6.87824 3.29605 6.83274 3.23654 6.77436L3.93298 6.06453L4.62941 5.3547C4.49391 5.22176 4.33248 5.11816 4.15518 5.05037L3.8 5.97919ZM3.93298 6.06453L3.23654 6.77436C3.17704 6.71597 3.1302 6.64595 3.09894 6.56866L4.02083 6.19586L4.94273 5.82305C4.87156 5.64707 4.76491 5.48764 4.62941 5.3547L3.93298 6.06453ZM4.02083 6.19586L3.09156 6.54987L3.92489 8.73737L4.85417 8.38336L5.78344 8.02935L4.95011 5.84185L4.02083 6.19586ZM4.85417 8.38336L3.92078 8.72636C4.07614 9.14915 4.35808 9.51375 4.72817 9.77049L5.29499 8.95343L5.8618 8.13637C5.82777 8.11276 5.80184 8.07923 5.78756 8.04035L4.85417 8.38336ZM5.29499 8.95343L4.72817 9.77049C5.09826 10.0272 5.53851 10.1636 5.98892 10.1611L5.98333 9.16669L5.97774 8.17229C5.93632 8.17252 5.89584 8.15998 5.8618 8.13637L5.29499 8.95343ZM5.98333 9.16669V10.1611H6.0125V9.16669V8.17227H5.98333V9.16669ZM6.0125 9.16669L6.0306 10.1609C6.48854 10.1526 6.9324 10.0012 7.29997 9.72791L6.70664 8.92989L6.11332 8.13187C6.07889 8.15747 6.0373 8.17166 5.9944 8.17244L6.0125 9.16669ZM6.70664 8.92989L7.29997 9.72791C7.66753 9.45463 7.94037 9.07318 8.08025 8.63704L7.13333 8.33336L6.18642 8.02967C6.17332 8.07053 6.14776 8.10627 6.11332 8.13187L6.70664 8.92989ZM7.13333 8.33336L8.07659 8.64822L10.0474 2.74405L9.10417 2.42919L8.16091 2.11433L6.19008 8.0185L7.13333 8.33336ZM9.10417 2.42919L10.0466 2.74642C10.1775 2.35762 10.197 1.93997 10.1029 1.54069L9.13497 1.76881L8.16707 1.99693C8.17605 2.03503 8.17419 2.07487 8.1617 2.11196L9.10417 2.42919ZM9.13497 1.76881L10.1029 1.54069C10.0088 1.1414 9.80482 0.776405 9.5141 0.486973L8.8125 1.19169L8.1109 1.89641C8.13863 1.92402 8.15809 1.95884 8.16707 1.99693L9.13497 1.76881ZM8.33333 2.16669L7.39101 1.84904L5.39935 7.75737L6.34167 8.07502L7.28399 8.39267L9.27565 2.48434L8.33333 2.16669ZM6.34167 8.07502L5.39164 7.78122C5.43123 7.65319 5.51076 7.5412 5.61858 7.46162L6.20911 8.2617L6.79965 9.06179C7.03343 8.88924 7.20585 8.64641 7.29169 8.36883L6.34167 8.07502ZM6.20911 8.2617L5.61858 7.46162C5.7264 7.38204 5.85685 7.33905 5.99086 7.33894L5.99167 8.33336L5.99247 9.32778C6.28303 9.32754 6.56588 9.23433 6.79965 9.06179L6.20911 8.2617ZM5.99167 8.33336L5.97536 7.33907C6.09941 7.33704 6.22113 7.37281 6.32435 7.44162L5.77275 8.26903L5.22114 9.09644C5.45387 9.25159 5.7283 9.33223 6.00797 9.32764L5.99167 8.33336ZM5.77275 8.26903L6.32435 7.44162C6.42757 7.51044 6.50741 7.60904 6.55324 7.72432L5.62917 8.09169L4.70509 8.45906C4.80842 8.71898 4.98842 8.94128 5.22114 9.09644L5.77275 8.26903ZM5.62917 8.09169L6.55844 7.73768L5.72511 5.55018L4.79583 5.90419L3.86656 6.2582L4.69989 8.4457L5.62917 8.09169ZM4.79583 5.90419L5.72591 5.55231C5.6162 5.26231 5.44649 4.99874 5.2279 4.77885L4.52265 5.4799L3.81739 6.18096C3.83862 6.20232 3.8551 6.22791 3.86575 6.25608L4.79583 5.90419ZM4.52265 5.4799L5.2279 4.77885C5.00932 4.55895 4.74677 4.38768 4.45743 4.27623L4.1 5.20419L3.74257 6.13215C3.77067 6.14298 3.79616 6.15961 3.81739 6.18096L4.52265 5.4799ZM4.1 5.20419L4.45401 4.27492L2.26651 3.44158L1.9125 4.37086L1.55849 5.30013L3.74599 6.13346L4.1 5.20419ZM1.9125 4.37086L2.25464 3.43715C2.37653 3.48181 2.48131 3.56365 2.55417 3.67109L1.73116 4.22923L0.908145 4.78736C1.06923 5.0249 1.30088 5.20582 1.57036 5.30457L1.9125 4.37086ZM1.73116 4.22923L2.55417 3.67109C2.62704 3.77853 2.6643 3.90615 2.6607 4.03592L1.66667 4.00836L0.672629 3.98079C0.664674 4.26769 0.747058 4.54983 0.908145 4.78736L1.73116 4.22923ZM1.66667 4.00836L2.66109 4.00916C2.66098 4.14317 2.61799 4.27363 2.53841 4.38145L1.73832 3.79091L0.938239 3.20037C0.765693 3.43414 0.672483 3.717 0.672248 4.00755L1.66667 4.00836ZM1.73832 3.79091L2.53841 4.38145C2.45883 4.48926 2.34683 4.56879 2.21881 4.60838L1.925 3.65836L1.63119 2.70833C1.35361 2.79418 1.11078 2.9666 0.938239 3.20037L1.73832 3.79091ZM1.925 3.65836L2.23966 4.60168L8.148 2.63085L7.83333 1.68752L7.51867 0.744202L1.61034 2.71504L1.925 3.65836ZM7.83333 1.68752L8.20865 2.6084C8.09858 2.65326 7.97787 2.66528 7.86112 2.643L8.04751 1.6662L8.2339 0.689407C7.97324 0.639667 7.70375 0.666497 7.45801 0.766653L7.83333 1.68752ZM8.04751 1.6662L7.86112 2.643C7.74436 2.62072 7.63656 2.56509 7.55074 2.48285L8.23879 1.76489L8.92683 1.04693C8.73524 0.863326 8.49457 0.739147 8.2339 0.689407L8.04751 1.6662ZM8.23879 1.76489L7.55074 2.48285C7.46492 2.40061 7.40477 2.29527 7.37754 2.17957L8.34553 1.9518L9.31351 1.72403C9.25273 1.46572 9.11843 1.23055 8.92683 1.04693L8.23879 1.76489ZM8.34553 1.9518L7.37754 2.17957C7.35032 2.06387 7.35719 1.94276 7.39733 1.83088L8.33333 2.16669L9.26934 2.5025C9.35895 2.25272 9.37429 1.98234 9.31351 1.72403L8.34553 1.9518Z" fill="#2F2F2F" mask="url(#path-1-inside-1_1304_102)"/>
</svg>
